<?xml version="1.0" encoding="utf-8"?>
<!-- Generator: Adobe Illustrator 25.2.3, SVG Export Plug-In . SVG Version: 6.00 Build 0)  -->
<svg version="1.1" id="artwork" xmlns="http://www.w3.org/2000/svg" xmlns:xlink="http://www.w3.org/1999/xlink" x="0px" y="0px"
	 width="148px" height="46px" viewBox="0 0 148 46" style="enable-background:new 0 0 148 46;" xml:space="preserve">
<style type="text/css">
	.st0{fill:#B4B4B4;}
	.st1{fill:#FFFFFF;}
</style>
<path class="st0" d="M137.579,0H10.426c-0.401,0-0.797,0-1.197,0.002C8.895,0.004,8.562,0.011,8.224,0.016
	C7.497,0.035,6.76,0.081,6.033,0.215C5.301,0.347,4.621,0.571,3.954,0.919C3.3,1.264,2.702,1.711,2.184,2.243
	C1.661,2.775,1.228,3.391,0.896,4.064C0.556,4.747,0.34,5.449,0.213,6.201C0.081,6.945,0.035,7.697,0.017,8.45
	C0.006,8.794,0.005,9.14,0,9.484c0,0.407,0,0.815,0,1.226v24.581c0,0.415,0,0.82,0,1.228c0.005,0.349,0.006,0.687,0.017,1.035
	c0.019,0.752,0.064,1.505,0.196,2.248c0.128,0.752,0.343,1.458,0.683,2.139c0.332,0.669,0.765,1.286,1.288,1.813
	c0.517,0.536,1.115,0.983,1.77,1.324c0.666,0.351,1.347,0.573,2.079,0.708c0.727,0.134,1.464,0.178,2.191,0.199
	c0.338,0.008,0.67,0.012,1.005,0.012C9.629,46,10.025,46,10.426,46h127.153c0.393,0,0.792,0,1.185-0.002
	c0.333,0,0.675-0.004,1.008-0.012c0.733-0.021,1.467-0.065,2.187-0.199c0.733-0.136,1.414-0.357,2.087-0.708
	c0.653-0.341,1.252-0.788,1.768-1.324c0.521-0.528,0.955-1.144,1.292-1.813c0.335-0.681,0.553-1.386,0.677-2.139
	c0.135-0.744,0.177-1.496,0.203-2.248c0.004-0.349,0.004-0.687,0.004-1.035C148,36.111,148,35.706,148,35.291V10.71
	c0-0.411,0-0.819-0.009-1.226c0-0.344,0-0.69-0.004-1.034c-0.026-0.752-0.068-1.505-0.203-2.248
	c-0.124-0.752-0.342-1.454-0.677-2.138c-0.337-0.672-0.771-1.289-1.292-1.821c-0.517-0.532-1.115-0.979-1.768-1.324
	c-0.673-0.348-1.354-0.573-2.087-0.704c-0.72-0.134-1.454-0.18-2.187-0.199c-0.333-0.005-0.675-0.012-1.008-0.014
	C138.372,0,137.972,0,137.579,0L137.579,0z"/>
<path d="M9.235,44.998c-0.333,0-0.658-0.004-0.989-0.012c-0.606-0.017-1.329-0.053-2.031-0.182c-0.669-0.124-1.24-0.318-1.794-0.61
	c-0.565-0.294-1.074-0.675-1.517-1.133c-0.45-0.455-0.821-0.977-1.111-1.562c-0.284-0.568-0.478-1.176-0.594-1.862
	c-0.134-0.757-0.167-1.522-0.182-2.106C1.009,37.294,1,36.504,1,36.504V9.484c0,0,0.009-0.777,0.016-1.004
	c0.015-0.589,0.048-1.354,0.181-2.104c0.117-0.689,0.311-1.297,0.594-1.867c0.29-0.587,0.661-1.113,1.106-1.565
	c0.449-0.461,0.96-0.844,1.523-1.141c0.555-0.29,1.142-0.488,1.79-0.604C6.942,1.064,7.684,1.031,8.25,1.016l0.987-0.014H138.76
	l0.915,0.013c0.64,0.016,1.383,0.049,2.103,0.183c0.653,0.118,1.244,0.316,1.811,0.609c0.555,0.293,1.065,0.676,1.511,1.133
	c0.444,0.454,0.818,0.982,1.115,1.572c0.281,0.573,0.474,1.182,0.584,1.851c0.119,0.663,0.162,1.325,0.19,2.121
	c0.003,0.317,0.003,0.659,0.003,0.999C147,9.906,147,10.306,147,10.71v24.581c0,0.407,0,0.806-0.009,1.207
	c0,0.366,0,0.701-0.004,1.045c-0.027,0.772-0.07,1.435-0.188,2.082c-0.113,0.689-0.306,1.297-0.59,1.875
	c-0.294,0.583-0.668,1.108-1.106,1.552c-0.45,0.467-0.959,0.848-1.52,1.14c-0.562,0.293-1.136,0.488-1.807,0.612
	c-0.695,0.129-1.418,0.165-2.033,0.183c-0.319,0.007-0.653,0.011-0.979,0.011L137.579,45L9.235,44.998z"/>
<g>
	<g id="_Group_3">
		<path id="_Path_" class="st1" d="M31.584,22.391c0.029-2.054,1.11-3.962,2.862-5.033c-1.11-1.587-2.901-2.56-4.839-2.619
			c-2.035-0.214-4.011,1.217-5.053,1.217c-1.061,0-2.658-1.197-4.381-1.159c-2.268,0.078-4.323,1.334-5.423,3.31
			c-2.346,4.06-0.594,10.028,1.655,13.318c1.129,1.606,2.434,3.407,4.157,3.339c1.684-0.068,2.307-1.071,4.342-1.071
			c2.015,0,2.599,1.071,4.352,1.032c1.801-0.029,2.94-1.616,4.031-3.242c0.808-1.149,1.431-2.414,1.84-3.748
			C32.986,26.821,31.594,24.718,31.584,22.391z"/>
		<path id="_Path_2" class="st1" d="M28.274,12.578c0.983-1.178,1.47-2.697,1.353-4.235c-1.509,0.156-2.891,0.876-3.894,2.015
			c-0.983,1.12-1.48,2.59-1.392,4.079C25.869,14.447,27.32,13.765,28.274,12.578z"/>
	</g>
	<path class="st1" d="M52.856,30.686h-5.744l-1.382,4.069h-2.434l5.442-15.061h2.531l5.442,15.061h-2.473L52.856,30.686z
		 M47.716,28.807h4.556l-2.239-6.61h-0.078L47.716,28.807z"/>
	<path class="st1" d="M68.462,29.264c0,3.417-1.83,5.608-4.585,5.608c-1.421,0.078-2.765-0.672-3.456-1.918h-0.049v5.442h-2.259
		V23.774h2.181v1.83h0.039c0.72-1.246,2.064-1.986,3.495-1.937C66.622,23.657,68.462,25.857,68.462,29.264z M66.135,29.264
		c0-2.22-1.149-3.69-2.901-3.69c-1.723,0-2.882,1.49-2.882,3.69c0,2.21,1.159,3.7,2.882,3.7
		C64.987,32.964,66.135,31.513,66.135,29.264z"/>
	<path class="st1" d="M80.544,29.264c0,3.417-1.83,5.608-4.585,5.608c-1.421,0.078-2.765-0.672-3.456-1.918h-0.049v5.442h-2.249
		V23.774h2.181v1.83h0.039c0.72-1.246,2.064-1.986,3.495-1.937C78.714,23.657,80.544,25.857,80.544,29.264z M78.227,29.264
		c0-2.22-1.149-3.69-2.901-3.69c-1.723,0-2.882,1.49-2.882,3.69c0,2.21,1.159,3.7,2.882,3.7
		C77.078,32.964,78.227,31.513,78.227,29.264L78.227,29.264z"/>
	<path class="st1" d="M88.537,30.559c0.166,1.49,1.616,2.473,3.602,2.473c1.898,0,3.271-0.983,3.271-2.327
		c0-1.168-0.828-1.869-2.775-2.346l-1.957-0.467c-2.765-0.672-4.05-1.967-4.05-4.06c0-2.599,2.268-4.381,5.481-4.381
		c3.184,0,5.364,1.782,5.442,4.381h-2.278c-0.136-1.499-1.382-2.414-3.193-2.414c-1.821,0-3.057,0.915-3.057,2.259
		c0,1.061,0.798,1.694,2.736,2.171l1.655,0.409c3.086,0.73,4.371,1.976,4.371,4.177c0,2.823-2.249,4.585-5.812,4.585
		c-3.339,0-5.598-1.723-5.744-4.449L88.537,30.559z"/>
	<path class="st1" d="M102.654,21.174v2.599h2.093v1.782h-2.093v6.056c0,0.944,0.419,1.382,1.334,1.382
		c0.243,0,0.497-0.019,0.74-0.049v1.772c-0.409,0.078-0.837,0.117-1.256,0.107c-2.22,0-3.086-0.837-3.086-2.969v-6.299h-1.597
		v-1.782h1.597v-2.599H102.654z"/>
	<path class="st1" d="M105.954,29.264c0-3.456,2.035-5.627,5.209-5.627c3.184,0,5.209,2.171,5.209,5.627
		c0,3.466-2.015,5.627-5.209,5.627C107.969,34.892,105.954,32.73,105.954,29.264z M114.073,29.264c0-2.375-1.09-3.768-2.911-3.768
		c-1.821,0-2.911,1.412-2.911,3.768c0,2.375,1.081,3.768,2.911,3.768S114.073,31.65,114.073,29.264L114.073,29.264z"/>
	<path class="st1" d="M118.23,23.774h2.152v1.869h0.049c0.302-1.207,1.402-2.035,2.638-1.986c0.263,0,0.516,0.029,0.769,0.088v2.113
		c-0.331-0.097-0.672-0.146-1.012-0.136c-1.256-0.049-2.307,0.925-2.366,2.181c0,0.117,0,0.234,0.01,0.35v6.513h-2.259
		L118.23,23.774z"/>
	<path class="st1" d="M134.245,31.533c-0.302,1.996-2.249,3.359-4.731,3.359c-3.193,0-5.179-2.142-5.179-5.578
		c0-3.446,1.996-5.676,5.082-5.676c3.037,0,4.946,2.083,4.946,5.423v0.769h-7.759v0.136c-0.136,1.577,1.022,2.96,2.599,3.106
		c0.117,0.01,0.234,0.01,0.36,0.01c1.09,0.107,2.122-0.526,2.541-1.548H134.245z M126.623,28.252h5.491
		c0.078-1.46-1.032-2.706-2.492-2.784c-0.068,0-0.136-0.01-0.204,0c-1.538-0.01-2.784,1.227-2.794,2.765
		C126.623,28.232,126.623,28.242,126.623,28.252z"/>
	<path class="st1" d="M47.433,8.352c1.762-0.127,3.3,1.197,3.427,2.969c0.019,0.214,0.01,0.419-0.019,0.633
		c0,2.317-1.246,3.641-3.407,3.641h-2.619V8.352H47.433z M45.934,14.564h1.363c1.256,0.078,2.337-0.886,2.405-2.132
		c0.01-0.156,0-0.312-0.019-0.467c0.175-1.246-0.701-2.395-1.947-2.57c-0.146-0.019-0.292-0.029-0.438-0.019h-1.363V14.564z"/>
	<path class="st1" d="M52.107,12.86c-0.136-1.421,0.905-2.687,2.327-2.823s2.687,0.905,2.823,2.327c0.019,0.166,0.019,0.331,0,0.497
		c0.136,1.421-0.905,2.687-2.327,2.823c-1.421,0.136-2.687-0.905-2.823-2.327C52.087,13.191,52.087,13.025,52.107,12.86z
		 M56.147,12.86c0-1.188-0.535-1.879-1.47-1.879s-1.46,0.691-1.46,1.879c0,1.197,0.526,1.879,1.46,1.879
		C55.621,14.739,56.147,14.048,56.147,12.86L56.147,12.86z"/>
	<path class="st1" d="M64.11,15.586h-1.12l-1.129-4.021h-0.088l-1.12,4.021h-1.11l-1.509-5.462h1.09l0.983,4.167h0.078l1.12-4.167
		h1.032l1.12,4.167h0.088l0.974-4.167H65.6L64.11,15.586z"/>
	<path class="st1" d="M66.875,10.124h1.042v0.866h0.078c0.282-0.643,0.935-1.032,1.626-0.974c0.983-0.078,1.83,0.662,1.908,1.636
		c0.01,0.127,0.01,0.263-0.01,0.389v3.534h-1.081v-3.261c0-0.876-0.38-1.314-1.178-1.314c-0.691-0.029-1.275,0.506-1.314,1.197
		c0,0.068,0,0.127,0.01,0.195v3.193h-1.081V10.124z"/>
	<path class="st1" d="M73.233,7.992h1.081v7.594h-1.081V7.992z"/>
	<path class="st1" d="M75.803,12.86c-0.136-1.421,0.905-2.687,2.327-2.823c1.421-0.136,2.687,0.905,2.823,2.327
		c0.019,0.166,0.019,0.331,0,0.497c0.136,1.421-0.905,2.687-2.327,2.823c-1.421,0.136-2.687-0.905-2.823-2.327
		C75.793,13.191,75.793,13.025,75.803,12.86z M79.853,12.86c0-1.188-0.535-1.879-1.47-1.879c-0.935,0-1.46,0.691-1.46,1.879
		c0,1.197,0.526,1.879,1.46,1.879C79.317,14.739,79.853,14.048,79.853,12.86z"/>
	<path class="st1" d="M82.092,14.048c0-0.983,0.73-1.548,2.035-1.636l1.48-0.088v-0.467c0-0.574-0.38-0.905-1.12-0.905
		c-0.604,0-1.022,0.224-1.139,0.604h-1.042c0.107-0.935,0.993-1.538,2.229-1.538c1.373,0,2.142,0.681,2.142,1.84v3.729h-1.042
		v-0.759h-0.088c-0.35,0.565-0.983,0.886-1.645,0.857c-0.905,0.097-1.713-0.565-1.811-1.47
		C82.102,14.155,82.092,14.096,82.092,14.048z M85.607,13.58v-0.458l-1.334,0.088c-0.75,0.049-1.09,0.302-1.09,0.789
		c0,0.497,0.428,0.779,1.012,0.779c0.711,0.068,1.344-0.448,1.412-1.149C85.607,13.61,85.607,13.59,85.607,13.58z"/>
	<path class="st1" d="M88.099,12.86c0-1.723,0.886-2.823,2.268-2.823c0.701-0.029,1.353,0.341,1.675,0.954h0.078V7.992H93.2v7.594
		h-1.032v-0.857h-0.088c-0.35,0.613-1.012,0.983-1.713,0.954C88.975,15.683,88.099,14.583,88.099,12.86z M89.209,12.86
		c0,1.159,0.545,1.859,1.46,1.859c0.905,0,1.47-0.711,1.47-1.85s-0.565-1.859-1.47-1.859C89.764,11.01,89.209,11.711,89.209,12.86
		L89.209,12.86z"/>
	<path class="st1" d="M97.659,12.86c-0.136-1.421,0.905-2.687,2.327-2.823c1.421-0.136,2.687,0.905,2.823,2.327
		c0.019,0.166,0.019,0.331,0,0.497c0.136,1.421-0.905,2.687-2.327,2.823c-1.421,0.136-2.687-0.905-2.823-2.327
		C97.64,13.191,97.64,13.025,97.659,12.86z M101.699,12.86c0-1.188-0.535-1.879-1.47-1.879c-0.935,0-1.46,0.691-1.46,1.879
		c0,1.197,0.526,1.879,1.46,1.879C101.174,14.739,101.699,14.048,101.699,12.86z"/>
	<path class="st1" d="M104.26,10.124h1.042v0.866h0.078c0.282-0.643,0.935-1.032,1.626-0.974c0.983-0.078,1.83,0.662,1.908,1.636
		c0.01,0.127,0.01,0.263-0.01,0.389v3.534h-1.081v-3.261c0-0.876-0.38-1.314-1.178-1.314c-0.691-0.029-1.275,0.506-1.314,1.197
		c0,0.068,0,0.127,0.01,0.195v3.193h-1.081V10.124z"/>
	<path class="st1" d="M114.989,8.771v1.382h1.188v0.905h-1.188v2.814c0,0.574,0.234,0.828,0.769,0.828
		c0.136,0,0.273-0.01,0.409-0.029v0.896c-0.195,0.039-0.389,0.049-0.584,0.058c-1.197,0-1.675-0.419-1.675-1.48v-3.086h-0.866
		v-0.905h0.866V8.771H114.989z"/>
	<path class="st1" d="M117.646,7.992h1.071V11h0.088c0.292-0.643,0.964-1.032,1.665-0.983c0.993-0.058,1.84,0.711,1.898,1.704
		c0.01,0.117,0,0.224-0.01,0.341v3.524h-1.081v-3.261c0-0.876-0.409-1.314-1.168-1.314c-0.701-0.058-1.314,0.467-1.373,1.168
		c-0.01,0.068-0.01,0.146,0,0.214v3.193h-1.081L117.646,7.992z"/>
	<path class="st1" d="M128.638,14.116c-0.302,1.032-1.295,1.694-2.366,1.577c-1.373,0.039-2.512-1.042-2.551-2.414
		c0-0.136,0-0.273,0.019-0.409c-0.185-1.382,0.779-2.648,2.161-2.833c0.117-0.019,0.234-0.019,0.36-0.019
		c1.519,0,2.434,1.042,2.434,2.755v0.38h-3.855v0.058c-0.068,0.798,0.526,1.49,1.314,1.558c0.049,0,0.088,0.01,0.136,0.01
		c0.526,0.068,1.042-0.195,1.295-0.662L128.638,14.116z M124.841,12.354h2.755c0.058-0.73-0.487-1.353-1.217-1.412
		c-0.039,0-0.088,0-0.127,0c-0.769-0.01-1.402,0.604-1.412,1.382C124.841,12.334,124.841,12.344,124.841,12.354L124.841,12.354z"/>
</g>
</svg>
