<?xml version="1.0" encoding="utf-8"?>
<!-- Generator: Adobe Illustrator 25.2.3, SVG Export Plug-In . SVG Version: 6.00 Build 0)  -->
<svg version="1.1" id="artwork" xmlns="http://www.w3.org/2000/svg" xmlns:xlink="http://www.w3.org/1999/xlink" x="0px" y="0px"
	 width="148px" height="46px" viewBox="0 0 148 46" style="enable-background:new 0 0 148 46;" xml:space="preserve">
<style type="text/css">
	.st0{fill:#B4B4B4;}
	.st1{fill:#FFFFFF;}
	.st2{fill-rule:evenodd;clip-rule:evenodd;fill:#00D3FF;}
	.st3{fill-rule:evenodd;clip-rule:evenodd;fill:#FFC700;}
	.st4{fill-rule:evenodd;clip-rule:evenodd;fill:#00F076;}
	.st5{fill-rule:evenodd;clip-rule:evenodd;fill:#F53349;}
</style>
<path class="st0" d="M137.579,0H10.426c-0.401,0-0.797,0-1.197,0.002C8.895,0.004,8.562,0.011,8.224,0.016
	C7.497,0.035,6.76,0.081,6.033,0.215C5.301,0.347,4.621,0.571,3.954,0.919C3.3,1.264,2.702,1.711,2.184,2.243
	C1.661,2.775,1.228,3.391,0.896,4.064C0.556,4.747,0.34,5.449,0.213,6.201C0.081,6.945,0.035,7.697,0.017,8.45
	C0.006,8.794,0.005,9.14,0,9.484c0,0.407,0,0.815,0,1.226v24.581c0,0.415,0,0.82,0,1.228c0.005,0.349,0.006,0.687,0.017,1.035
	c0.019,0.752,0.064,1.505,0.196,2.248c0.128,0.752,0.343,1.458,0.683,2.139c0.332,0.669,0.765,1.286,1.288,1.813
	c0.517,0.536,1.115,0.983,1.77,1.324c0.666,0.351,1.347,0.573,2.079,0.708c0.727,0.134,1.464,0.178,2.191,0.199
	c0.338,0.008,0.67,0.012,1.005,0.012C9.629,46,10.025,46,10.426,46h127.153c0.393,0,0.792,0,1.185-0.002
	c0.333,0,0.675-0.004,1.008-0.012c0.733-0.021,1.467-0.065,2.187-0.199c0.733-0.136,1.414-0.357,2.087-0.708
	c0.653-0.341,1.252-0.788,1.768-1.324c0.521-0.528,0.955-1.144,1.292-1.813c0.335-0.681,0.553-1.386,0.677-2.139
	c0.135-0.744,0.177-1.496,0.203-2.248c0.004-0.349,0.004-0.687,0.004-1.035C148,36.111,148,35.706,148,35.291V10.71
	c0-0.411,0-0.819-0.009-1.226c0-0.344,0-0.69-0.004-1.034c-0.026-0.752-0.068-1.505-0.203-2.248
	c-0.124-0.752-0.342-1.454-0.677-2.138c-0.337-0.672-0.771-1.289-1.292-1.821c-0.517-0.532-1.115-0.979-1.768-1.324
	c-0.673-0.348-1.354-0.573-2.087-0.704c-0.72-0.134-1.454-0.18-2.187-0.199c-0.333-0.005-0.675-0.012-1.008-0.014
	C138.372,0,137.972,0,137.579,0L137.579,0z"/>
<path d="M9.235,44.998c-0.333,0-0.658-0.004-0.989-0.012c-0.606-0.017-1.329-0.053-2.031-0.182c-0.669-0.124-1.24-0.318-1.794-0.61
	c-0.565-0.294-1.074-0.675-1.517-1.133c-0.45-0.455-0.821-0.977-1.111-1.562c-0.284-0.568-0.478-1.176-0.594-1.862
	c-0.134-0.757-0.167-1.522-0.182-2.106C1.009,37.294,1,36.504,1,36.504V9.484c0,0,0.009-0.777,0.016-1.004
	c0.015-0.589,0.048-1.354,0.181-2.104c0.117-0.689,0.311-1.297,0.594-1.867c0.29-0.587,0.661-1.113,1.106-1.565
	c0.449-0.461,0.96-0.844,1.523-1.141c0.555-0.29,1.142-0.488,1.79-0.604C6.942,1.064,7.684,1.031,8.25,1.016l0.987-0.014H138.76
	l0.915,0.013c0.64,0.016,1.383,0.049,2.103,0.183c0.653,0.118,1.244,0.316,1.811,0.609c0.555,0.293,1.065,0.676,1.511,1.133
	c0.444,0.454,0.818,0.982,1.115,1.572c0.281,0.573,0.474,1.182,0.584,1.851c0.119,0.663,0.162,1.325,0.19,2.121
	c0.003,0.317,0.003,0.659,0.003,0.999C147,9.906,147,10.306,147,10.71v24.581c0,0.407,0,0.806-0.009,1.207
	c0,0.366,0,0.701-0.004,1.045c-0.027,0.772-0.07,1.435-0.188,2.082c-0.113,0.689-0.306,1.297-0.59,1.875
	c-0.294,0.583-0.668,1.108-1.106,1.552c-0.45,0.467-0.959,0.848-1.52,1.14c-0.562,0.293-1.136,0.488-1.807,0.612
	c-0.695,0.129-1.418,0.165-2.033,0.183c-0.319,0.007-0.653,0.011-0.979,0.011L137.579,45L9.235,44.998z"/>
<g>
	<g>
		<g>
			<path class="st1" d="M50.969,11.545c0,0.942-0.279,1.693-0.838,2.253c-0.635,0.666-1.462,0.998-2.479,0.998
				c-0.974,0-1.802-0.337-2.483-1.013c-0.682-0.676-1.022-1.513-1.022-2.512c0-1,0.34-1.836,1.022-2.512
				c0.681-0.676,1.509-1.013,2.483-1.013c0.483,0,0.946,0.094,1.385,0.283c0.439,0.189,0.792,0.44,1.056,0.754l-0.593,0.594
				c-0.447-0.534-1.062-0.801-1.847-0.801c-0.711,0-1.325,0.249-1.843,0.749c-0.519,0.5-0.778,1.148-0.778,1.946
				c0,0.798,0.259,1.447,0.778,1.946c0.518,0.5,1.132,0.749,1.843,0.749c0.754,0,1.382-0.251,1.885-0.753
				c0.326-0.327,0.515-0.783,0.566-1.367h-2.45v-0.811h3.27C50.954,11.213,50.969,11.382,50.969,11.545z"/>
			<path class="st1" d="M47.652,14.894c-0.997,0-1.856-0.35-2.552-1.041c-0.698-0.691-1.051-1.559-1.051-2.581
				s0.354-1.89,1.051-2.581c0.697-0.691,1.556-1.041,2.552-1.041c0.494,0,0.973,0.098,1.424,0.291
				c0.453,0.195,0.82,0.458,1.091,0.781l0.057,0.068l-0.731,0.732l-0.068-0.082c-0.431-0.515-1.011-0.765-1.773-0.765
				c-0.681,0-1.279,0.243-1.776,0.722c-0.496,0.478-0.747,1.109-0.747,1.876c0,0.767,0.251,1.398,0.747,1.877
				c0.497,0.479,1.095,0.722,1.776,0.722c0.723,0,1.334-0.244,1.816-0.725c0.289-0.289,0.465-0.693,0.527-1.201h-2.44v-1.005h3.449
				l0.015,0.08c0.032,0.178,0.048,0.356,0.048,0.526c0,0.965-0.292,1.746-0.867,2.322C49.55,14.548,48.692,14.894,47.652,14.894z
				 M47.652,7.844c-0.943,0-1.756,0.331-2.415,0.985c-0.659,0.653-0.993,1.475-0.993,2.443c0,0.968,0.334,1.79,0.993,2.443
				c0.659,0.654,1.471,0.984,2.415,0.984c0.985,0,1.795-0.326,2.409-0.968c0.539-0.54,0.811-1.274,0.811-2.186
				c0-0.134-0.011-0.272-0.032-0.412h-3.09v0.616h2.459l-0.009,0.106c-0.053,0.604-0.252,1.084-0.594,1.427
				c-0.52,0.519-1.176,0.782-1.954,0.782c-0.733,0-1.376-0.261-1.911-0.777c-0.536-0.516-0.807-1.195-0.807-2.016
				c0-0.821,0.271-1.5,0.807-2.016c0.535-0.515,1.177-0.777,1.911-0.777c0.771,0,1.394,0.254,1.852,0.755l0.455-0.455
				c-0.245-0.27-0.568-0.492-0.961-0.661C48.573,7.936,48.119,7.844,47.652,7.844z"/>
		</g>
		<g>
			<path class="st1" d="M56.153,8.727H53.08v2.14h2.771v0.811H53.08v2.14h3.073v0.829h-3.94V7.898h3.94V8.727z"/>
			<path class="st1" d="M56.251,14.744h-4.135V7.8h4.135v1.024h-3.073v1.945h2.771v1.005h-2.771v1.945h3.073V14.744z M52.311,14.549
				h3.745v-0.635h-3.073V11.58h2.771v-0.616h-2.771V8.63h3.073V7.995h-3.745V14.549z"/>
		</g>
		<g>
			<path class="st1" d="M59.81,14.646h-0.868V8.727h-1.885V7.898h4.637v0.829H59.81V14.646z"/>
			<path class="st1" d="M59.907,14.744h-1.063V8.825H56.96V7.8h4.832v1.024h-1.885V14.744z M59.039,14.549h0.673V8.63h1.885V7.995
				h-4.443V8.63h1.885V14.549z"/>
		</g>
		<g>
			<path class="st1" d="M65.05,14.646V7.898h0.867v6.748H65.05z"/>
			<path class="st1" d="M66.014,14.744h-1.061V7.8h1.061V14.744z M65.148,14.549h0.672V7.995h-0.672V14.549z"/>
		</g>
		<g>
			<path class="st1" d="M69.763,14.646h-0.868V8.727h-1.885V7.898h4.637v0.829h-1.885V14.646z"/>
			<path class="st1" d="M69.861,14.744h-1.063V8.825h-1.884V7.8h4.832v1.024h-1.885V14.744z M68.993,14.549h0.673V8.63h1.885V7.995
				h-4.442V8.63h1.884V14.549z"/>
		</g>
		<g>
			<path class="st1" d="M80.427,13.774c-0.663,0.682-1.488,1.023-2.475,1.023c-0.986,0-1.811-0.34-2.474-1.023
				c-0.663-0.681-0.994-1.516-0.994-2.502s0.331-1.821,0.994-2.502c0.662-0.682,1.487-1.023,2.474-1.023
				c0.981,0,1.804,0.343,2.47,1.028c0.666,0.685,0.998,1.517,0.998,2.498C81.421,12.258,81.089,13.092,80.427,13.774z
				 M76.119,13.209c0.5,0.506,1.11,0.758,1.833,0.758c0.723,0,1.334-0.253,1.833-0.758c0.5-0.506,0.75-1.152,0.75-1.937
				c0-0.785-0.25-1.431-0.75-1.937c-0.499-0.506-1.11-0.758-1.833-0.758c-0.723,0-1.333,0.253-1.833,0.758
				c-0.499,0.506-0.749,1.152-0.749,1.937C75.37,12.057,75.62,12.703,76.119,13.209z"/>
			<path class="st1" d="M77.952,14.894c-1.01,0-1.865-0.354-2.543-1.052c-0.678-0.696-1.022-1.561-1.022-2.57
				s0.344-1.874,1.022-2.57c0.678-0.699,1.534-1.053,2.543-1.053c1.003,0,1.858,0.356,2.539,1.057
				c0.682,0.7,1.027,1.563,1.027,2.565c0,1.008-0.343,1.872-1.022,2.57l0,0C79.817,14.54,78.962,14.894,77.952,14.894z
				 M77.952,7.844c-0.954,0-1.764,0.334-2.404,0.994c-0.641,0.658-0.966,1.477-0.966,2.434c0,0.956,0.325,1.775,0.966,2.434
				s1.449,0.993,2.404,0.993c0.954,0,1.764-0.334,2.405-0.993l0,0c0.641-0.66,0.967-1.479,0.967-2.434
				c0-0.95-0.327-1.767-0.972-2.43C79.708,8.179,78.9,7.844,77.952,7.844z M77.952,14.065c-0.746,0-1.386-0.265-1.902-0.788
				c-0.515-0.523-0.777-1.197-0.777-2.005c0-0.808,0.261-1.482,0.777-2.005c0.515-0.522,1.155-0.787,1.902-0.787
				c0.748,0,1.388,0.265,1.902,0.787c0.517,0.523,0.779,1.198,0.779,2.005c0,0.808-0.261,1.483-0.779,2.005
				C79.339,13.799,78.699,14.065,77.952,14.065z M77.952,8.674c-0.693,0-1.286,0.245-1.764,0.729
				c-0.478,0.485-0.722,1.114-0.722,1.869c0,0.755,0.243,1.384,0.722,1.869c0.477,0.484,1.071,0.73,1.764,0.73
				c0.693,0,1.286-0.245,1.764-0.73c0.48-0.485,0.723-1.114,0.723-1.869c0-0.754-0.243-1.383-0.723-1.869
				C79.239,8.919,78.646,8.674,77.952,8.674z"/>
		</g>
		<g>
			<path class="st1" d="M82.638,14.646V7.898h1.056l3.28,5.25h0.037l-0.037-1.301V7.898h0.868v6.748h-0.905l-3.431-5.504h-0.037
				l0.037,1.301v4.203H82.638z"/>
			<path class="st1" d="M87.938,14.744h-1.056l-0.029-0.046l-3.281-5.261l0.029,1.003v4.304h-1.06V7.8h1.206l3.157,5.053
				l-0.029-1.004V7.8h1.062V14.744z M86.99,14.549h0.754V7.995H87.07v3.852l0.04,1.398h-0.191l-3.28-5.25h-0.904v6.554h0.672v-4.106
				l-0.04-1.398h0.191l0.029,0.046L86.99,14.549z"/>
		</g>
	</g>
	<g>
		<path class="st1" d="M74.271,24.489c-2.646,0-4.802,2.011-4.802,4.784c0,2.754,2.156,4.784,4.802,4.784
			c2.645,0,4.802-2.029,4.802-4.784C79.072,26.5,76.916,24.489,74.271,24.489z M74.271,32.172c-1.45,0-2.7-1.196-2.7-2.899
			c0-1.721,1.25-2.899,2.7-2.899c1.45,0,2.7,1.178,2.7,2.899C76.97,30.976,75.72,32.172,74.271,32.172z M63.795,24.489
			c-2.646,0-4.802,2.011-4.802,4.784c0,2.754,2.156,4.784,4.802,4.784c2.645,0,4.802-2.029,4.802-4.784
			C68.597,26.5,66.441,24.489,63.795,24.489z M63.795,32.172c-1.45,0-2.7-1.196-2.7-2.899c0-1.721,1.25-2.899,2.7-2.899
			c1.45,0,2.7,1.178,2.7,2.899C66.495,30.976,65.245,32.172,63.795,32.172z M51.335,25.957v2.029h4.856
			c-0.145,1.142-0.525,1.975-1.105,2.555c-0.707,0.707-1.812,1.486-3.751,1.486c-2.99,0-5.327-2.41-5.327-5.4s2.337-5.4,5.327-5.4
			c1.613,0,2.791,0.634,3.66,1.45l1.431-1.431c-1.214-1.16-2.827-2.048-5.092-2.048c-4.095,0-7.538,3.334-7.538,7.429
			c0,4.095,3.443,7.429,7.538,7.429c2.211,0,3.878-0.725,5.182-2.084c1.341-1.341,1.758-3.225,1.758-4.747
			c0-0.471-0.036-0.906-0.109-1.268H51.335z M102.295,27.533c-0.399-1.069-1.613-3.044-4.095-3.044
			c-2.464,0-4.512,1.939-4.512,4.784c0,2.682,2.029,4.784,4.747,4.784c2.192,0,3.461-1.341,3.986-2.12l-1.631-1.087
			c-0.544,0.797-1.286,1.323-2.356,1.323c-1.069,0-1.83-0.489-2.319-1.45l6.396-2.645L102.295,27.533z M95.771,29.128
			c-0.054-1.848,1.431-2.79,2.5-2.79c0.834,0,1.54,0.417,1.776,1.015L95.771,29.128z M90.571,33.767h2.102V19.706h-2.102V33.767z
			 M87.128,25.558h-0.072c-0.471-0.562-1.377-1.069-2.519-1.069c-2.392,0-4.584,2.102-4.584,4.802c0,2.682,2.193,4.766,4.584,4.766
			c1.142,0,2.048-0.507,2.519-1.087h0.072v0.689c0,1.83-0.978,2.809-2.555,2.809c-1.286,0-2.084-0.924-2.41-1.703l-1.83,0.761
			c0.525,1.268,1.921,2.827,4.24,2.827c2.464,0,4.548-1.45,4.548-4.983v-8.589h-1.993V25.558z M84.718,32.172
			c-1.45,0-2.664-1.214-2.664-2.881c0-1.685,1.214-2.917,2.664-2.917c1.431,0,2.555,1.232,2.555,2.917
			C87.273,30.958,86.15,32.172,84.718,32.172z M112.14,19.706h-5.029v14.061h2.098v-5.327h2.93c2.326,0,4.613-1.684,4.613-4.367
			S114.467,19.706,112.14,19.706z M112.195,26.483h-2.985v-4.82h2.985c1.569,0,2.46,1.299,2.46,2.41
			C114.655,25.162,113.764,26.483,112.195,26.483z M125.165,24.463c-1.52,0-3.093,0.669-3.745,2.153l1.863,0.778
			c0.398-0.778,1.14-1.031,1.917-1.031c1.085,0,2.189,0.651,2.207,1.809v0.145c-0.38-0.217-1.194-0.543-2.189-0.543
			c-2.008,0-4.052,1.103-4.052,3.166c0,1.881,1.646,3.093,3.491,3.093c1.411,0,2.189-0.633,2.677-1.375h0.072v1.085h2.026v-5.391
			C129.434,25.856,127.571,24.463,125.165,24.463z M124.911,32.169c-0.687,0-1.646-0.344-1.646-1.194
			c0-1.085,1.194-1.501,2.225-1.501c0.923,0,1.357,0.199,1.917,0.47C127.245,31.247,126.123,32.169,124.911,32.169z M136.814,24.771
			l-2.406,6.096h-0.072l-2.496-6.096h-2.261l3.744,8.52l-2.135,4.739h2.189l5.771-13.26H136.814z M117.911,33.767h2.098V19.706
			h-2.098V33.767z"/>
	</g>
	<path class="st2" d="M33.833,23.967l-11.223,6.397l-11.223,6.397c-0.537,0.306-1.152,0.306-1.69,0
		c-0.537-0.306-0.844-0.832-0.844-1.444V22.523V9.73c0-0.613,0.307-1.138,0.844-1.444c0.538-0.306,1.152-0.306,1.69,0l11.223,6.397
		l11.223,6.397c0.537,0.306,0.845,0.832,0.845,1.444C34.678,23.136,34.37,23.661,33.833,23.967L33.833,23.967z"/>
	<path class="st3" d="M33.833,23.967l-5.565,3.172l-4.717-4.616l4.717-4.616l5.565,3.172c0.537,0.306,0.845,0.832,0.845,1.444
		C34.678,23.136,34.37,23.661,33.833,23.967L33.833,23.967z"/>
	<path class="st4" d="M23.551,22.523L9.308,8.585C9.419,8.47,9.549,8.369,9.697,8.285c0.538-0.306,1.152-0.306,1.69,0l11.223,6.397
		l5.919,3.374L23.551,22.523z"/>
	<path class="st5" d="M28.354,27.09l-5.745,3.274l-11.223,6.397c-0.537,0.306-1.152,0.306-1.69,0
		c-0.148-0.084-0.278-0.185-0.389-0.299l14.243-13.939L28.354,27.09z"/>
</g>
</svg>
