<?xml version="1.0" encoding="utf-8"?>
<!-- Generator: Adobe Illustrator 25.2.3, SVG Export Plug-In . SVG Version: 6.00 Build 0)  -->
<svg version="1.1" id="artwork" xmlns="http://www.w3.org/2000/svg" xmlns:xlink="http://www.w3.org/1999/xlink" x="0px" y="0px"
	 width="148px" height="46px" viewBox="0 0 148 46" style="enable-background:new 0 0 148 46;" xml:space="preserve">
<style type="text/css">
	.st0{fill:#B4B4B4;}
	.st1{fill:#FFFFFF;}
	.st2{fill-rule:evenodd;clip-rule:evenodd;fill:#AA1731;}
</style>
<path class="st0" d="M137.579,0H10.426c-0.401,0-0.797,0-1.197,0.002C8.895,0.004,8.562,0.011,8.224,0.016
	C7.497,0.035,6.76,0.081,6.033,0.215C5.301,0.347,4.621,0.571,3.954,0.919C3.3,1.264,2.702,1.711,2.184,2.243
	C1.661,2.775,1.228,3.391,0.896,4.064C0.556,4.747,0.34,5.449,0.213,6.201C0.081,6.945,0.035,7.697,0.017,8.45
	C0.006,8.794,0.005,9.14,0,9.484c0,0.407,0,0.815,0,1.226v24.581c0,0.415,0,0.82,0,1.228c0.005,0.349,0.006,0.687,0.017,1.035
	c0.019,0.752,0.064,1.505,0.196,2.248c0.128,0.752,0.343,1.458,0.683,2.139c0.332,0.669,0.765,1.286,1.288,1.813
	c0.517,0.536,1.115,0.983,1.77,1.324c0.666,0.351,1.347,0.573,2.079,0.708c0.727,0.134,1.464,0.178,2.191,0.199
	c0.338,0.008,0.67,0.012,1.005,0.012C9.629,46,10.025,46,10.426,46h127.153c0.393,0,0.792,0,1.185-0.002
	c0.333,0,0.675-0.004,1.008-0.012c0.733-0.021,1.467-0.065,2.187-0.199c0.733-0.136,1.414-0.357,2.087-0.708
	c0.653-0.341,1.252-0.788,1.768-1.324c0.521-0.528,0.955-1.144,1.292-1.813c0.335-0.681,0.553-1.386,0.677-2.139
	c0.135-0.744,0.177-1.496,0.203-2.248c0.004-0.349,0.004-0.687,0.004-1.035C148,36.111,148,35.706,148,35.291V10.71
	c0-0.411,0-0.819-0.009-1.226c0-0.344,0-0.69-0.004-1.034c-0.026-0.752-0.068-1.505-0.203-2.248
	c-0.124-0.752-0.342-1.454-0.677-2.138c-0.337-0.672-0.771-1.289-1.292-1.821c-0.517-0.532-1.115-0.979-1.768-1.324
	c-0.673-0.348-1.354-0.573-2.087-0.704c-0.72-0.134-1.454-0.18-2.187-0.199c-0.333-0.005-0.675-0.012-1.008-0.014
	C138.372,0,137.972,0,137.579,0L137.579,0z"/>
<path d="M9.235,44.998c-0.333,0-0.658-0.004-0.989-0.012c-0.606-0.017-1.329-0.053-2.031-0.182c-0.669-0.124-1.24-0.318-1.794-0.61
	c-0.565-0.294-1.074-0.675-1.517-1.133c-0.45-0.455-0.821-0.977-1.111-1.562c-0.284-0.568-0.478-1.176-0.594-1.862
	c-0.134-0.757-0.167-1.522-0.182-2.106C1.009,37.294,1,36.504,1,36.504V9.484c0,0,0.009-0.777,0.016-1.004
	c0.015-0.589,0.048-1.354,0.181-2.104c0.117-0.689,0.311-1.297,0.594-1.867c0.29-0.587,0.661-1.113,1.106-1.565
	c0.449-0.461,0.96-0.844,1.523-1.141c0.555-0.29,1.142-0.488,1.79-0.604C6.942,1.064,7.684,1.031,8.25,1.016l0.987-0.014H138.76
	l0.915,0.013c0.64,0.016,1.383,0.049,2.103,0.183c0.653,0.118,1.244,0.316,1.811,0.609c0.555,0.293,1.065,0.676,1.511,1.133
	c0.444,0.454,0.818,0.982,1.115,1.572c0.281,0.573,0.474,1.182,0.584,1.851c0.119,0.663,0.162,1.325,0.19,2.121
	c0.003,0.317,0.003,0.659,0.003,0.999C147,9.906,147,10.306,147,10.71v24.581c0,0.407,0,0.806-0.009,1.207
	c0,0.366,0,0.701-0.004,1.045c-0.027,0.772-0.07,1.435-0.188,2.082c-0.113,0.689-0.306,1.297-0.59,1.875
	c-0.294,0.583-0.668,1.108-1.106,1.552c-0.45,0.467-0.959,0.848-1.52,1.14c-0.562,0.293-1.136,0.488-1.807,0.612
	c-0.695,0.129-1.418,0.165-2.033,0.183c-0.319,0.007-0.653,0.011-0.979,0.011L137.579,45L9.235,44.998z"/>
<g>
	<g>
		<g>
			<path class="st1" d="M54.41,30.836h-5.327l-1.304,3.564h-2.342l5.217-13.309h2.214l5.337,13.309h-2.462L54.41,30.836z
				 M49.753,29.026h3.977l-1.424-3.812c-0.196-0.527-0.389-1.108-0.579-1.745c-0.172,0.564-0.358,1.139-0.56,1.727L49.753,29.026z"
				/>
			<path class="st1" d="M59.147,26.914c0-0.735-0.025-1.543-0.073-2.425h2.131c0.08,0.41,0.135,0.83,0.165,1.258
				c0.882-0.961,1.892-1.442,3.031-1.442c0.661,0,1.274,0.167,1.837,0.5c0.563,0.334,1.018,0.86,1.364,1.58
				c0.346,0.72,0.519,1.634,0.519,2.742c0,1.157-0.197,2.146-0.592,2.967c-0.395,0.821-0.948,1.442-1.658,1.865
				c-0.71,0.423-1.531,0.634-2.462,0.634c-0.674,0-1.338-0.113-1.993-0.34v4.097l-2.269,0.193V26.914z M65.113,31.979
				c0.462-0.622,0.693-1.529,0.693-2.724c0-1.108-0.191-1.912-0.574-2.411c-0.383-0.499-0.893-0.748-1.529-0.748
				c-0.441,0-0.848,0.104-1.222,0.312c-0.374,0.208-0.729,0.487-1.065,0.836v5.309c0.227,0.11,0.49,0.198,0.79,0.262
				c0.3,0.065,0.597,0.097,0.891,0.097C63.979,32.911,64.651,32.601,65.113,31.979z"/>
			<path class="st1" d="M69.498,26.914c0-0.735-0.025-1.543-0.073-2.425h2.131c0.08,0.41,0.135,0.83,0.165,1.258
				c0.882-0.961,1.892-1.442,3.031-1.442c0.661,0,1.273,0.167,1.837,0.5c0.563,0.334,1.018,0.86,1.364,1.58
				c0.346,0.72,0.519,1.634,0.519,2.742c0,1.157-0.198,2.146-0.592,2.967c-0.395,0.821-0.948,1.442-1.658,1.865
				c-0.711,0.423-1.531,0.634-2.462,0.634c-0.674,0-1.338-0.113-1.993-0.34v4.097l-2.269,0.193V26.914z M75.463,31.979
				c0.463-0.622,0.694-1.529,0.694-2.724c0-1.108-0.191-1.912-0.574-2.411c-0.383-0.499-0.893-0.748-1.529-0.748
				c-0.441,0-0.848,0.104-1.222,0.312c-0.374,0.208-0.729,0.487-1.065,0.836v5.309c0.227,0.11,0.49,0.198,0.79,0.262
				c0.3,0.065,0.597,0.097,0.891,0.097C74.329,32.911,75.001,32.601,75.463,31.979z"/>
			<path class="st1" d="M82.639,33.77c-0.98-0.542-1.733-1.318-2.26-2.328c-0.527-1.01-0.79-2.204-0.79-3.582
				c0-1.494,0.303-2.763,0.909-3.807c0.606-1.044,1.431-1.828,2.475-2.351c1.044-0.524,2.215-0.785,3.513-0.785
				c0.765,0,1.496,0.084,2.191,0.253c0.695,0.168,1.342,0.4,1.943,0.693l-0.579,1.745c-1.206-0.576-2.358-0.863-3.454-0.863
				c-0.925,0-1.735,0.197-2.429,0.593c-0.695,0.395-1.236,0.975-1.621,1.74c-0.386,0.766-0.579,1.69-0.579,2.774
				c0,0.949,0.148,1.791,0.445,2.526c0.297,0.735,0.766,1.317,1.406,1.745c0.64,0.429,1.447,0.643,2.42,0.643
				c0.441,0,0.882-0.037,1.323-0.11c0.441-0.073,0.854-0.18,1.24-0.321v-2.691h-3.077v-1.764h5.281v5.603
				c-0.759,0.355-1.557,0.628-2.393,0.817c-0.836,0.19-1.667,0.285-2.494,0.285C84.776,34.583,83.619,34.312,82.639,33.77z"/>
			<path class="st1" d="M99.06,34.399c-0.08-0.386-0.132-0.823-0.156-1.313c-0.349,0.417-0.804,0.77-1.364,1.061
				c-0.56,0.291-1.193,0.436-1.897,0.436c-0.569,0-1.088-0.112-1.557-0.335c-0.468-0.223-0.84-0.56-1.116-1.01
				c-0.276-0.45-0.413-0.999-0.413-1.649c0-0.961,0.346-1.728,1.038-2.301c0.692-0.572,1.846-0.859,3.463-0.859
				c0.606,0,1.206,0.043,1.8,0.129v-0.193c0-0.876-0.187-1.492-0.56-1.851c-0.374-0.358-0.909-0.537-1.607-0.537
				c-0.484,0-1.001,0.071-1.552,0.211c-0.551,0.141-1.035,0.309-1.451,0.505l-0.358-1.653c0.404-0.184,0.937-0.352,1.598-0.505
				c0.661-0.153,1.359-0.23,2.094-0.23c0.857,0,1.586,0.13,2.186,0.39c0.6,0.26,1.068,0.708,1.405,1.341
				c0.337,0.634,0.505,1.487,0.505,2.558v3.94c0,0.41,0.024,1.032,0.073,1.865H99.06z M97.701,32.562
				c0.471-0.226,0.857-0.508,1.157-0.845V29.88c-0.619-0.067-1.124-0.101-1.516-0.101c-0.937,0-1.585,0.151-1.942,0.455
				c-0.359,0.303-0.537,0.712-0.537,1.226c0,0.49,0.13,0.853,0.391,1.089c0.26,0.236,0.614,0.353,1.061,0.353
				C96.767,32.902,97.229,32.789,97.701,32.562z"/>
			<path class="st1" d="M102.858,32.02V20.309l2.26-0.184v11.491c0,0.422,0.072,0.721,0.216,0.896
				c0.144,0.174,0.372,0.262,0.684,0.262c0.141,0,0.34-0.033,0.597-0.101l0.266,1.626c-0.215,0.086-0.476,0.155-0.785,0.207
				c-0.309,0.052-0.602,0.078-0.877,0.078C103.645,34.583,102.858,33.729,102.858,32.02z"/>
			<path class="st1" d="M108.507,32.02V20.309l2.26-0.184v11.491c0,0.422,0.072,0.721,0.216,0.896
				c0.144,0.174,0.372,0.262,0.684,0.262c0.141,0,0.34-0.033,0.597-0.101l0.266,1.626c-0.215,0.086-0.476,0.155-0.785,0.207
				c-0.309,0.052-0.602,0.078-0.877,0.078C109.293,34.583,108.507,33.729,108.507,32.02z"/>
			<path class="st1" d="M121.823,29.733h-6.485c0.104,2.076,1.093,3.114,2.967,3.114c0.465,0,0.941-0.057,1.428-0.17
				c0.487-0.113,0.953-0.265,1.401-0.455l0.496,1.552c-1.108,0.539-2.355,0.808-3.738,0.808c-1.053,0-1.941-0.199-2.664-0.597
				c-0.723-0.398-1.266-0.97-1.63-1.718c-0.364-0.747-0.547-1.647-0.547-2.7c0-1.096,0.193-2.039,0.579-2.829
				c0.386-0.79,0.923-1.393,1.612-1.809c0.689-0.416,1.484-0.625,2.384-0.625c0.937,0,1.719,0.219,2.347,0.657
				c0.628,0.438,1.093,1.021,1.396,1.75c0.303,0.729,0.455,1.534,0.455,2.416V29.733z M119.609,28.291
				c-0.043-0.79-0.242-1.382-0.597-1.777c-0.355-0.395-0.83-0.592-1.424-0.592c-0.576,0-1.055,0.199-1.437,0.597
				c-0.383,0.398-0.633,0.989-0.749,1.773H119.609z"/>
			<path class="st1" d="M123.538,26.978c0-0.545-0.025-1.375-0.073-2.489h2.122c0.037,0.276,0.072,0.605,0.106,0.988
				c0.033,0.383,0.056,0.693,0.069,0.932c0.263-0.435,0.522-0.801,0.776-1.097c0.254-0.297,0.551-0.539,0.891-0.726
				c0.34-0.187,0.727-0.28,1.162-0.28c0.349,0,0.649,0.037,0.9,0.11l-0.285,1.966c-0.22-0.067-0.465-0.101-0.735-0.101
				c-0.533,0-0.998,0.136-1.396,0.409c-0.398,0.272-0.824,0.721-1.277,1.345v6.365h-2.26V26.978z"/>
			<path class="st1" d="M130.764,38.454c-0.331-0.058-0.603-0.124-0.817-0.197l0.413-1.653c0.153,0.043,0.346,0.084,0.579,0.124
				c0.233,0.04,0.453,0.06,0.661,0.06c1.004,0,1.757-0.646,2.26-1.938l0.147-0.367l-3.656-9.993h2.434l1.837,5.585
				c0.3,0.955,0.493,1.687,0.579,2.195c0.171-0.716,0.373-1.433,0.606-2.149l1.865-5.63h2.287l-3.646,10.039
				c-0.343,0.949-0.713,1.714-1.111,2.296c-0.398,0.582-0.868,1.013-1.41,1.295c-0.542,0.281-1.196,0.423-1.961,0.423
				C131.449,38.542,131.094,38.513,130.764,38.454z"/>
		</g>
		<g>
			<path class="st1" d="M45.426,8.42h4.044l-0.114,0.977h-2.745v1.892H49.2v0.915h-2.588v2.095h2.892l-0.1,0.986h-3.977V8.42z"/>
			<path class="st1" d="M52.257,11.781L50.124,8.42h1.346l1.446,2.47l1.522-2.47h1.308l-2.114,3.318l2.29,3.546h-1.365l-1.636-2.702
				l-1.664,2.702h-1.308L52.257,11.781z"/>
			<path class="st1" d="M56.794,8.42h1.849c0.869,0,1.534,0.177,1.996,0.531c0.461,0.354,0.692,0.866,0.692,1.536
				c0,0.455-0.104,0.853-0.311,1.192c-0.207,0.34-0.495,0.601-0.865,0.782c-0.37,0.182-0.795,0.273-1.275,0.273
				c-0.262,0-0.563-0.031-0.901-0.095v2.645h-1.185V8.42z M59.767,11.485c0.253-0.229,0.379-0.552,0.379-0.969
				c0-0.423-0.129-0.728-0.386-0.915c-0.258-0.186-0.636-0.28-1.135-0.28h-0.645v2.437c0.297,0.047,0.525,0.071,0.683,0.071
				C59.146,11.829,59.514,11.715,59.767,11.485z"/>
			<path class="st1" d="M62.502,8.42h1.185v5.85h2.84l-0.1,1.014h-3.925V8.42z"/>
			<path class="st1" d="M68.328,14.948c-0.503-0.287-0.887-0.691-1.152-1.211c-0.265-0.52-0.398-1.124-0.398-1.813
				c0-0.724,0.141-1.356,0.424-1.899c0.283-0.542,0.691-0.961,1.223-1.256c0.532-0.295,1.161-0.443,1.884-0.443
				c0.692,0,1.288,0.143,1.787,0.429c0.499,0.286,0.88,0.688,1.143,1.206c0.262,0.519,0.393,1.119,0.393,1.801
				c0,0.737-0.143,1.377-0.429,1.92c-0.286,0.544-0.694,0.962-1.223,1.256c-0.529,0.294-1.151,0.441-1.865,0.441
				C69.427,15.38,68.831,15.236,68.328,14.948z M71.4,14.107c0.332-0.223,0.58-0.529,0.744-0.92c0.164-0.39,0.247-0.837,0.247-1.339
				c0-0.493-0.073-0.932-0.218-1.318c-0.145-0.385-0.378-0.693-0.697-0.922c-0.319-0.229-0.73-0.344-1.233-0.344
				c-0.48,0-0.888,0.116-1.223,0.348c-0.335,0.232-0.586,0.544-0.754,0.934c-0.168,0.391-0.251,0.821-0.251,1.292
				c0,0.496,0.079,0.94,0.237,1.332c0.158,0.392,0.4,0.702,0.725,0.929c0.325,0.228,0.728,0.341,1.209,0.341
				C70.664,14.441,71.068,14.33,71.4,14.107z"/>
			<path class="st1" d="M74.956,8.42h2.148c0.784,0,1.377,0.156,1.78,0.469c0.403,0.313,0.604,0.76,0.604,1.342
				c0,0.364-0.073,0.684-0.218,0.96c-0.145,0.277-0.326,0.502-0.54,0.676c-0.215,0.174-0.436,0.303-0.664,0.389l2.11,3.029h-1.375
				l-1.787-2.721h-0.872v2.721h-1.185V8.42z M76.814,11.668c0.287,0,0.542-0.056,0.763-0.168c0.221-0.112,0.393-0.27,0.517-0.474
				c0.123-0.204,0.185-0.44,0.185-0.709c0-0.344-0.109-0.596-0.327-0.756c-0.218-0.159-0.536-0.239-0.953-0.239h-0.858v2.347H76.814
				z"/>
			<path class="st1" d="M81.114,8.42h4.044l-0.114,0.977h-2.745v1.892h2.588v0.915h-2.588v2.095h2.892l-0.1,0.986h-3.977V8.42z"/>
			<path class="st1" d="M89.557,8.42h1.185v6.865h-1.185V8.42z"/>
			<path class="st1" d="M93.876,9.411h-2.129l0.104-0.991h5.343l-0.109,0.991h-2.024v5.874h-1.185V9.411z"/>
			<path class="st1" d="M102.338,14.948c-0.503-0.287-0.886-0.691-1.152-1.211c-0.265-0.52-0.398-1.124-0.398-1.813
				c0-0.724,0.141-1.356,0.424-1.899c0.283-0.542,0.69-0.961,1.223-1.256c0.532-0.295,1.161-0.443,1.884-0.443
				c0.692,0,1.288,0.143,1.787,0.429c0.499,0.286,0.88,0.688,1.143,1.206c0.262,0.519,0.393,1.119,0.393,1.801
				c0,0.737-0.143,1.377-0.429,1.92c-0.286,0.544-0.694,0.962-1.223,1.256c-0.529,0.294-1.151,0.441-1.865,0.441
				C103.436,15.38,102.841,15.236,102.338,14.948z M105.41,14.107c0.332-0.223,0.58-0.529,0.744-0.92
				c0.164-0.39,0.247-0.837,0.247-1.339c0-0.493-0.073-0.932-0.218-1.318c-0.145-0.385-0.378-0.693-0.697-0.922
				c-0.319-0.229-0.73-0.344-1.233-0.344c-0.481,0-0.888,0.116-1.223,0.348c-0.335,0.232-0.586,0.544-0.754,0.934
				c-0.168,0.391-0.251,0.821-0.251,1.292c0,0.496,0.079,0.94,0.237,1.332c0.158,0.392,0.4,0.702,0.725,0.929
				c0.325,0.228,0.728,0.341,1.209,0.341C104.674,14.441,105.078,14.33,105.41,14.107z"/>
			<path class="st1" d="M108.966,8.42h1.361l3.394,5.319c-0.028-0.506-0.043-0.972-0.043-1.399V8.42h1.1v6.865h-1.318l-3.447-5.404
				c0.035,0.613,0.052,1.157,0.052,1.631v3.774h-1.1V8.42z"/>
		</g>
	</g>
	<g>
		<g id="形状_1_拷贝_25_4_">
			<g>
				<path class="st2" d="M28.756,8.457H16.151c-5.938,0-8.109,2.172-8.109,8.109v12.605c0,5.938,2.172,8.109,8.109,8.109h12.601
					c5.938,0,8.113-2.172,8.113-8.109l0-12.605C36.865,10.629,34.694,8.457,28.756,8.457z"/>
			</g>
		</g>
		<g>
			<g>
				<path class="st1" d="M13.75,22.871h0.764v3.768H13.75v-1.53h-1.726v1.53h-0.765v-3.768h0.765v1.52h1.726V22.871z M18.057,25.028
					c0,0.613-0.304,0.94-0.857,0.94c-0.555,0-0.861-0.337-0.861-0.966v-2.129h-0.765v2.155c0,1.06,0.589,1.668,1.616,1.668
					c1.037,0,1.631-0.619,1.631-1.699v-2.126h-0.764V25.028z M26.893,25.463l-0.856-2.592h-0.624l-0.856,2.592l-0.833-2.59h-0.814
					l1.314,3.767h0.633l0.857-2.474l0.857,2.474h0.638l1.31-3.767h-0.793L26.893,25.463z M29.891,25.018h1.391v-0.686h-1.391v-0.771
					h2.019v-0.687h-2.773v3.764h2.846v-0.686h-2.091V25.018z M32.894,26.635h0.754v-3.764h-0.754V26.635z M20.332,25.853
					l-0.343,0.785h-0.781l1.66-3.766h0.675l1.653,3.766h-0.802l-0.338-0.785H20.332z M20.617,25.174h1.156l-0.58-1.349
					L20.617,25.174z"/>
			</g>
			<g>
				<path class="st1" d="M22.454,18.073c-2.645,0-4.798-2.152-4.798-4.798h0.678c0,2.272,1.848,4.12,4.12,4.12
					c2.272,0,4.12-1.848,4.12-4.12h0.678C27.252,15.921,25.099,18.073,22.454,18.073z"/>
			</g>
		</g>
	</g>
</g>
</svg>
